# xmcd
# 
# Track frame offsets:
#     150
#     14900
#     33498
#     53513
#     71085
#     88250
#     102636
#     123560
#     138242
#     146403
#     161260
# 
# Disc length: 2351
# 
# Revision: 0
# Processed by: cddbd v1.5.2PL0 Copyright (c) Steve Scherf et al.
# Submitted via: fre:ac v1.0.27
# 
DISCID=9d092d0b
DTITLE=Trevor Baker - The Lonely Road
DYEAR=2007
DGENRE=Country
TTITLE0=Picture Of Today
TTITLE1=I'm Leavin' Town
TTITLE2=I Thee Wed
TTITLE3=North American Christian
TTITLE4=The Lonely Road
TTITLE5=The Prophets/Profits Are Up
TTITLE6=That's Your Wife
TTITLE7=Living Proof
TTITLE8=Personal Reflection (Spoken)
TTITLE9=We Call It Home
TTITLE10=Look What You've Done
EXTD=
EXTT0=
EXTT1=
EXTT2=
EXTT3=
EXTT4=
EXTT5=
EXTT6=
EXTT7=
EXTT8=
EXTT9=
EXTT10=
PLAYORDER=
